<?xml version="1.0" encoding="utf-8"?>
<svg viewBox="0 0 500 500" xmlns="http://www.w3.org/2000/svg">
  <path style="fill: none; stroke: rgb(102, 102, 102); stroke-dasharray: 10px; stroke-width: 10px;" d="M 22.164 135.657 C 22.164 135.657 76.261 92.213 154.462 95.959 C 200.389 98.16 242.89 128.896 255.823 154.72 C 275.664 194.338 278.091 227.44 248.997 260.013 C 221.507 290.791 168.235 287.769 149.817 243.861 C 136.308 211.659 143.984 151.194 200.087 135.681 C 256.726 120.02 337.416 147.243 353.926 228.426 C 368.236 298.799 308.997 319.109 314.532 350.779 C 323.105 399.83 380.257 392.86 422.841 367.482"/>
  <line style="stroke-width: 12px; stroke: rgb(102, 102, 102);" x1="361.27" y1="371.896" x2="492.198" y2="371.896" transform="matrix(0.686245, 0.72737, -0.72737, 0.686245, 404.395932, -193.709471)"/>
  <line style="stroke-width: 12px; stroke: rgb(102, 102, 102);" x1="361.525" y1="371.527" x2="492.452" y2="371.527" transform="matrix(0.686245, -0.72737, 0.72737, 0.686245, -136.268015, 427.147122)"/>
</svg>