<?xml version="1.0" encoding="utf-8"?>
<svg viewBox="0 0 500 500" xmlns="http://www.w3.org/2000/svg">
  <path style="fill: rgb(102, 102, 102);" d="M 113.497 208.003 C 121.886 179.133 135.395 139.172 178.04 138.303 L 352.925 138.303 L 353.145 174.722 L 296.398 174.434 C 294.917 198.473 292.511 223.329 291.229 247.392 C 288.753 293.863 285.224 328.396 314.142 329.972 C 323.089 330.46 337.393 331.617 344.949 300.73 L 354.307 300.73 C 349.064 331.857 340.805 356.966 314.684 366.4 C 304.161 370.2 246.727 376.946 251.687 308.439 C 253.48 283.681 255.163 267.953 257.806 236.18 C 259.7 213.412 261.609 204.164 263.078 174.11 L 210.514 174.11 C 211.603 198.905 200.941 312.862 190.574 342.888 C 180.285 372.107 155.294 375.628 139.685 360.006 C 125.437 345.746 136.805 328.562 149.797 311.641 C 174.558 279.394 187.332 229.385 189.014 174.027 L 164.225 174.027 C 142.212 174.504 129.98 194.049 122.534 208.086 L 113.497 208.003 Z"/>
</svg>