<?xml version="1.0" encoding="utf-8"?>
<svg viewBox="0 0 500 500" xmlns="http://www.w3.org/2000/svg">
  <path d="M 500 250 C 500 254.808 499.864 259.585 499.596 264.326 C 498.575 281.813 495.753 299.184 491.164 316.116 C 473.138 382.019 428.82 437.062 370.185 469.269 C 364.018 472.618 357.639 475.756 351.05 478.668 C 321.474 491.738 290.187 498.736 258.883 499.845 C 255.935 499.948 252.973 500 250 500 C 248.052 500 246.109 499.978 244.172 499.933 C 193.97 498.758 144.408 482.477 102.493 451.845 C 99.902 449.951 97.36 448.022 94.87 446.06 C 37.074 400.268 0 329.464 0 250 C 0 245.366 0.126 240.761 0.375 236.189 C 1.378 218.395 4.246 200.719 8.941 183.499 C 27.026 117.799 71.25 62.93 129.728 30.779 C 135.922 27.412 142.33 24.258 148.951 21.332 C 178.519 8.265 209.797 1.268 241.094 0.156 C 244.05 0.052 247.019 0 250 0 C 252.008 0 254.011 0.024 256.008 0.071 C 306.149 1.281 355.643 17.56 397.508 48.154 C 399.962 49.947 402.37 51.772 404.734 53.627 C 462.756 99.408 500 170.355 500 250 Z" style="fill: rgb(0, 112, 235);"/>
  <path d="M 433.293 330.939 C 458.717 297.82 480.706 261.926 498.728 223.791 C 501.327 249.336 500.021 275.164 494.917 300.268 C 475.071 311.64 454.501 321.893 433.293 330.939 Z M 433.293 330.939 C 379.344 401.218 309.931 459.004 230.142 499.211 C 184.788 495.595 140.497 479.619 102.493 451.846 C 64.257 423.903 36.992 388.353 20.239 349.472 C 77.493 367.993 138.578 378 202 378 C 284.093 378 362.269 361.234 433.293 330.939 Z" style="stroke-width: 6px; fill: rgba(255, 255, 255, 0.97);"/>
</svg>