<?xml version="1.0" encoding="utf-8"?>
<svg viewBox="0 0 500 500" xmlns="http://www.w3.org/2000/svg">
  <rect x="83.698" y="60.244" width="330.884" height="330.884" style="fill: none; stroke-width: 18px; stroke: rgb(102, 102, 102) ; stroke-linejoin: round;" transform="matrix(0.707107, -0.707107, 0.707107, 0.707107, -85.886818, 266.758942)"/>
  <path style="fill: rgb(102, 102, 102) ;" d="M 344.316 197.06 C 344.316 197.06 321.839 196.47 304.694 196.47 C 296.499 196.47 285.614 195.144 275.262 199.432 C 264.305 203.971 254.315 212.733 249.695 219.718 L 246.373 217.69 C 260.174 188.299 276.291 158.311 304.694 158.311 L 343.136 158.926 C 352.965 168.552 364.84 168.153 371.711 159.366 L 384.506 159.366 L 384.506 196.65 L 371.997 196.65 C 364.506 188.615 350.634 187.899 344.316 197.06 Z" transform="matrix(0.704274, 0.709928, -0.709928, 0.704274, 227.470345, -168.042903)"/>
  <rect x="162.381" y="172.173" width="26.969" height="139.404" style="fill: rgb(102, 102, 102) ;" transform="matrix(0.707107, -0.707107, 0.707107, 0.707107, -47.322361, 201.980286)"/>
  <path d="M 225.497 186.81 C 225.497 207.251 208.926 223.822 188.485 223.822 C 168.044 223.822 151.473 207.251 151.473 186.81 C 151.473 172.948 159.094 160.866 170.374 154.524 L 170.374 186.337 L 207.091 186.337 L 207.091 154.808 C 218.099 161.221 225.497 173.152 225.497 186.81 Z" style="fill: rgb(102, 102, 102) ;" transform="matrix(0.707107, -0.707107, 0.707107, 0.707107, -78.559536, 188.686512)"/>
  <rect x="162.381" y="252.059" width="26.969" height="204.086" style="fill: rgb(102, 102, 102) ;" transform="matrix(-0.707107, -0.707107, 0.707107, -0.707107, 112.911598, 638.949585)"/>
  <path d="M 346.059 307.979 C 346.059 328.42 329.488 344.991 309.047 344.991 C 288.606 344.991 272.035 328.42 272.035 307.979 C 272.035 294.117 279.656 282.035 290.936 275.693 L 290.936 307.506 L 327.653 307.506 L 327.653 275.977 C 338.661 282.39 346.059 294.321 346.059 307.979 Z" style="fill: rgb(102, 102, 102) ;" transform="matrix(-0.707107, 0.707107, -0.707107, -0.707107, 747.021154, 311.257697)"/>
</svg>