<?xml version="1.0" encoding="utf-8"?>
<svg viewBox="0 0 500 500" xmlns="http://www.w3.org/2000/svg">
  <circle style="fill: rgb(102, 102, 102) ;" cx="250" cy="250" r="250"/>
  <path d="M 433.292 330.939 C 379.343 401.218 309.93 459.005 230.14 499.211 C 218.22 498.26 206.384 496.456 194.725 493.814 C 260.153 464.968 319.13 424.178 368.894 374.206 C 291.165 420.173 201.977 448.816 106.645 454.818 C 101.66 451.328 96.781 447.64 92.019 443.758 C 88.844 441.169 85.754 438.528 82.749 435.837 C 183.388 433.455 277.571 404.988 358.797 356.938 C 308.868 370.667 256.291 378 202 378 C 138.571 378 77.479 367.991 20.219 349.466 C 16.789 341.531 13.802 333.464 11.251 325.301 C 70.891 346.474 135.099 358 202 358 C 279.449 358 353.29 342.554 420.611 314.573 C 449.678 275.976 473.954 233.568 492.556 188.231 C 495.492 199.934 497.558 211.791 498.769 223.703 C 492.59 236.784 485.945 249.6 478.854 262.132 C 486.062 254.676 493.067 247.025 499.863 239.186 C 500.269 249.381 500.056 259.583 499.237 269.731 C 495.706 273.492 492.126 277.207 488.499 280.874 C 491.95 278.864 495.378 276.818 498.782 274.738 C 497.919 283.312 496.622 291.838 494.896 300.279 C 475.056 311.647 454.493 321.896 433.292 330.939 Z" style="stroke-width: 6px; fill: rgb(102, 102, 102) ;"/>
</svg>