<?xml version="1.0" encoding="utf-8"?>
<svg viewBox="0 0 500 500" xmlns="http://www.w3.org/2000/svg">
  <path d="M 174.561 12.703 C -8.11 70.775 -59.415 304.818 82.213 433.98 C 147.943 493.925 240.66 514.249 325.438 487.297 C 508.11 429.225 559.414 195.182 417.786 66.02 C 352.056 6.076 259.34 -14.249 174.561 12.703 Z" style="fill: rgb(255, 255, 255) ;"/>
  <path d="M 202 378 C 138.596 378 77.529 367.999 20.288 349.488 C 18.565 345.476 16.952 341.428 15.449 337.347 C 73.993 357.221 136.738 368 202 368 C 281.384 368 357.044 352.052 425.949 323.184 C 426.515 322.741 427.08 322.298 427.645 321.853 C 454.753 286.062 477.803 247.027 496.11 205.434 C 497.195 211.555 498.053 217.71 498.684 223.883 C 486.805 249.007 473.204 273.158 458.034 296.183 C 472.715 282.899 486.712 268.873 499.967 254.166 C 499.878 259.365 499.63 264.561 499.223 269.745 C 486.934 282.834 474.055 295.363 460.628 307.288 C 473.089 301.07 485.294 294.417 497.224 287.348 C 496.582 291.662 495.828 295.962 494.964 300.241 C 475.103 311.625 454.517 321.887 433.292 330.94 C 379.343 401.218 309.931 459.004 230.142 499.21 C 223.984 498.72 217.843 498.001 211.73 497.055 C 285.039 462.546 349.948 413.137 402.554 352.731 C 317.36 411.226 216.039 447.934 106.626 454.82 C 102.294 451.803 98.095 448.684 94.029 445.47 C 205.437 440.74 308.71 404.583 395.212 345.637 C 334.677 366.608 269.669 378 202 378 Z" style="stroke-width: 6px; fill: rgb(255, 255, 255) ;"/>
</svg>