<?xml version="1.0" encoding="utf-8"?>
<svg viewBox="0 0 500 500" xmlns="http://www.w3.org/2000/svg">
  <path d="M 500 250 C 500 329.424 462.963 400.198 405.217 445.991 C 402.873 447.84 400.485 449.659 398.052 451.447 C 356.121 482.264 306.468 498.684 256.148 499.926 C 254.105 499.975 252.055 500 250 500 C 246.959 500 243.931 499.946 240.917 499.838 C 209.902 498.714 178.903 491.809 149.568 478.94 C 142.926 476.026 136.496 472.882 130.281 469.524 C 71.687 437.502 27.322 382.704 9.089 317.033 C 4.366 299.865 1.462 282.238 0.413 264.489 C 0.139 259.694 0 254.863 0 250 C 0 170.678 36.942 99.984 94.56 54.185 C 96.975 52.276 99.438 50.399 101.948 48.554 C 144.318 17.415 194.572 0.975 245.432 0.041 C 246.951 0.014 248.474 0 250 0 C 252.513 0 255.018 0.037 257.513 0.111 C 289.052 1.055 320.601 7.974 350.431 21.06 C 357.108 23.989 363.57 27.15 369.815 30.528 C 428.278 62.512 472.562 117.177 490.834 182.688 C 495.626 200.034 498.562 217.852 499.603 235.792 C 499.866 240.494 500 245.232 500 250 Z" style="fill: rgb(102, 102, 102) ;"/>
  <path d="M 453.586 302.837 C 469.874 288.486 485.352 273.239 499.945 257.172 C 499.837 261.334 499.626 265.495 499.312 269.651 C 485.244 284.642 470.402 298.898 454.849 312.354 C 469.229 305.407 483.279 297.886 496.971 289.821 C 496.429 293.273 495.814 296.716 495.126 300.148 C 475.215 311.568 454.575 321.861 433.293 330.939 C 379.343 401.22 309.927 459.007 230.135 499.214 C 225.178 498.819 220.226 498.276 215.287 497.584 C 290.102 461.892 356.1 410.697 409.124 348.155 C 322.521 409.358 218.7 447.817 106.356 454.837 C 102.876 452.423 99.478 449.935 96.163 447.377 C 209.797 442.157 314.927 404.35 402.426 343.085 C 339.854 365.682 272.365 378 202 378 C 138.663 378 77.656 368.02 20.468 349.546 C 19.089 346.331 17.779 343.09 16.538 339.826 C 74.788 359.395 137.156 370 202 370 C 281.754 370 357.76 353.958 426.97 324.925 C 427.676 324.374 428.381 323.821 429.084 323.266 C 455.718 288.132 478.455 249.88 496.649 209.155 C 497.458 214.074 498.123 219.015 498.642 223.972 C 485.623 251.496 470.538 277.851 453.586 302.837 Z" style="stroke-width: 6px; fill: rgb(102, 102, 102) ;"/>
</svg>