<?xml version="1.0" encoding="utf-8"?>
<svg viewBox="0 0 500 500" xmlns="http://www.w3.org/2000/svg">
  <circle style="fill: rgb(0, 112, 235);" cx="250" cy="250" r="250"/>
  <path d="M 500 250 C 500 258.741 499.551 267.376 498.676 275.886 C 479.214 293.898 458.546 310.626 436.806 325.934 C 456.122 320.588 475.029 314.26 493.471 307.006 C 491.569 315.165 489.266 323.171 486.586 331.002 C 454.814 342.565 421.78 351.498 387.745 357.537 C 337.322 414.631 276.111 461.971 207.301 496.368 C 196.706 494.545 186.339 492.055 176.245 488.942 C 234.76 462.757 288.098 427.078 334.301 383.865 C 260.978 416.171 179.899 434.107 94.631 434.107 C 89.973 434.107 85.328 434.054 80.695 433.947 C 73.243 427.084 66.208 419.774 59.634 412.059 C 71.211 412.755 82.88 413.107 94.631 413.107 C 176.385 413.107 254.154 396.045 324.571 365.288 C 310.865 366.232 297.03 366.712 283.084 366.712 C 182.441 366.712 87.634 341.724 4.529 297.614 C 2.966 289.509 1.794 281.264 1.035 272.901 C 84.366 319.897 180.594 346.712 283.084 346.712 C 315.097 346.712 346.499 344.096 377.088 339.066 C 377.238 338.981 377.389 338.896 377.539 338.811 C 422.849 286.185 458.791 225.263 482.779 158.635 C 486.647 168.482 489.908 178.634 492.516 189.045 C 475.408 230.85 453.68 270.275 427.966 306.685 C 453.611 288.409 477.691 268.081 499.968 245.94 C 499.989 247.29 500 248.644 500 250 Z" style="fill: rgb(238, 238, 238);"/>
</svg>