<?xml version="1.0" encoding="utf-8"?>
<svg viewBox="0 0 500 500" xmlns="http://www.w3.org/2000/svg">
  <circle style="fill: rgb(0, 112, 235);" cx="250" cy="250" r="250"/>
  <path d="M 372.867 398.121 C 409.242 387.001 444.104 372.414 477.066 354.744 C 475.429 358.286 473.712 361.784 471.916 365.234 C 439.779 381.831 405.914 395.552 370.663 406.055 C 397.837 405.555 424.557 403.193 450.699 399.09 C 448.971 401.412 447.204 403.703 445.399 405.961 C 417.438 410.042 388.838 412.155 359.745 412.155 C 356.246 412.155 352.753 412.124 349.269 412.064 C 289.127 445.731 222.464 469.137 151.649 479.911 C 148.235 478.449 144.861 476.913 141.528 475.306 C 207.417 466.357 269.801 446.382 326.761 417.3 C 286.7 425.919 245.124 430.457 202.487 430.457 C 153.581 430.457 106.069 424.486 60.641 413.234 C 58.072 410.256 55.571 407.216 53.142 404.118 C 100.802 416.735 150.859 423.457 202.487 423.457 C 243.726 423.457 283.963 419.168 322.777 411.012 C 203.146 403.59 93.202 360.397 3.513 292 C 3.032 289.157 2.599 286.298 2.215 283.423 C 97.185 357.461 215.717 402.687 344.676 405.964 C 346.628 405.474 348.576 404.974 350.52 404.464 C 405.845 372.891 455.489 332.502 497.54 285.212 C 497.022 288.881 496.425 292.525 495.751 296.141 C 459.689 335.427 418.354 369.794 372.867 398.121 Z" style="fill: rgb(238, 238, 238);"/>
</svg>