<?xml version="1.0" encoding="utf-8"?>
<svg viewBox="0 0 500 500" xmlns="http://www.w3.org/2000/svg">
  <circle style="fill: rgb(0, 112, 235);" cx="250" cy="250" r="250"/>
  <path d="M 365.834 401.264 C 404.487 390.004 441.481 374.85 476.362 356.254 C 475.184 358.758 473.967 361.24 472.71 363.697 C 438.126 381.663 401.528 396.288 363.344 407.144 C 392.743 406.966 421.627 404.613 449.841 400.236 C 448.681 401.777 447.503 403.304 446.308 404.817 C 418.059 408.992 389.155 411.155 359.745 411.155 C 356.161 411.155 352.585 411.123 349.016 411.059 C 288.468 444.99 221.291 468.501 149.915 479.161 C 147.649 478.17 145.4 477.146 143.169 476.09 C 211.243 466.664 275.56 445.484 334.007 414.666 C 291.725 424.345 247.703 429.457 202.487 429.457 C 153.174 429.457 105.281 423.376 59.518 411.924 C 57.7 409.788 55.918 407.621 54.172 405.423 C 101.528 417.844 151.235 424.457 202.487 424.457 C 246.36 424.457 289.101 419.611 330.204 410.425 C 207.548 404.345 94.799 360.618 3.273 290.559 C 2.963 288.66 2.675 286.754 2.408 284.84 C 97.439 358.659 215.919 403.721 344.787 406.967 C 346.829 406.455 348.867 405.932 350.9 405.398 C 405.925 374.012 455.344 333.923 497.28 287.004 C 496.918 289.445 496.521 291.873 496.089 294.29 C 458.129 335.868 414.269 371.968 365.834 401.264 Z" style="fill: rgb(238, 238, 238);"/>
</svg>