<?xml version="1.0" encoding="utf-8"?>
<svg viewBox="0 0 500 500" xmlns="http://www.w3.org/2000/svg">
  <path style="fill: none; stroke: rgb(28, 164, 252); stroke-width: 5px;" d="M 47.825 294.341 C 18.616 284.189 21.441 259.847 47.825 249.69 C 50.09 238.818 59.046 224.458 75.506 224.458 C 85.917 221.855 365.496 232.138 378.042 234.328 L 407.17 179.923 C 408.35 177.518 408.583 175.702 412.487 176.011 L 436.283 176.026 C 438.548 175.923 442.179 176.011 441.861 180.556 L 442.192 239.428 L 456.679 241.217 C 468.371 245.805 467.194 265.223 458.619 267.858 C 445.942 274.813 275.212 285.546 267.668 284.183 L 310.393 306.196 C 314.525 309.389 314.2 311.457 306.151 311.543 L 268.409 313.613 L 198.176 291.469 C 185.652 292.532 54.816 298.195 47.825 294.341 Z"/>
</svg>