<?xml version="1.0" encoding="utf-8"?>
<svg viewBox="0 0 500 500" xmlns="http://www.w3.org/2000/svg" xmlns:bx="https://boxy-svg.com">
  <path d="M 1024.694 547.449 L 1094.064 667.6 L 955.324 667.6 L 1024.694 547.449 Z" style="fill: rgb(216, 216, 216);" transform="matrix(0.835135, 0.550046, -0.550046, 0.835135, -86.39109, -709.089966)" bx:shape="triangle 955.324 547.449 138.74 120.151 0.5 0 1@f7b18cd3"/>
  <path d="M 54.894 380.581 C 9.611 310.799 4.993 222.159 42.785 148.049 C 124.214 -11.631 347.967 -23.283 445.542 127.078 C 470.458 165.474 483.06 209.578 483.064 253.829 L 458.842 253.829 C 458.941 215.61 448.352 176.436 424.98 140.419 C 384.464 77.984 313.714 41.905 239.383 45.776 C 79.223 54.116 -11.847 232.707 75.454 367.238 C 115.973 429.676 186.72 465.753 261.053 461.883 C 325.203 458.542 378.268 427.889 413.229 383.693 L 443.58 383.693 C 352.915 520.07 147.309 522.991 54.894 380.581 Z" style="fill: rgb(216, 216, 216);"/>
</svg>