<?xml version="1.0" encoding="utf-8"?>
<svg viewBox="0 0 500 500" xmlns="http://www.w3.org/2000/svg" xmlns:bx="https://boxy-svg.com">
  <polyline style="fill: none; stroke: rgb(102, 102, 102); stroke-width: 18px;" points="480.675 435.48 33.981 435.48 258.1 48.301"/>
  <polyline style="fill: rgb(216, 216, 216); stroke: rgb(0, 0, 0);" points="443.974 191.749"/>
  <path style="fill: none; stroke: rgb(102, 102, 102); stroke-width: 9px;" d="M 481.486 415.543 C 472.08 241.414 380.02 128.942 277.605 60.589"/>
  <line style="stroke: rgb(102, 102, 102); stroke-width: 14px;" x1="378.683" y1="210.661" x2="469.475" y2="210.661" transform="matrix(0.866025, -0.5, 0.5, 0.866025, -48.514679, 240.262801)"/>
  <line style="stroke: rgb(102, 102, 102); stroke-width: 14px;" x1="241.486" y1="435.828" x2="332.278" y2="435.828" transform="matrix(0, 1, -1, 0, 722.710007, 148.945999)"/>
  <line style="stroke: rgb(102, 102, 102); stroke-width: 14px;" x1="115.685" y1="214.447" x2="206.477" y2="214.447" transform="matrix(-0.866025, -0.5, 0.5, -0.866025, 193.357696, 480.704067)"/>
  <path style="stroke: rgb(102, 102, 102); stroke-width: 38.124px; fill: none;" transform="matrix(0.472144, 0, 0, 0.472144, -31.633615, -21.718601)" d="M 348.107 616.706 A 403.606 403.606 0 0 1 548.645 967.22 L 145.043 965.508 Z" bx:shape="pie 145.043 965.508 0 403.606 30.207 90.243 1@8c7fd996"/>
</svg>