<?xml version="1.0" encoding="utf-8"?>
<svg viewBox="0 0 500 500" xmlns="http://www.w3.org/2000/svg">
  <circle style="fill: rgb(0, 112, 235);" cx="250" cy="250" r="250"/>
  <path d="M 0 250 C 0 242.842 0.301 235.755 0.89 228.75 C 91.941 295.271 203.282 335.676 323.891 338.941 C 325.213 338.606 326.534 338.267 327.852 337.924 C 391.969 301.197 448.334 252.476 493.89 194.82 C 495.822 203.396 497.313 212.138 498.339 221.022 C 469.517 255.346 436.89 286.368 401.108 313.438 C 435.828 299.154 468.842 281.571 499.759 261.078 C 499.369 270.016 498.51 278.833 497.206 287.504 C 466.984 306.376 434.947 322.611 401.415 335.887 C 431.809 332.646 461.495 327.037 490.285 319.248 C 488.067 326.959 485.488 334.517 482.567 341.903 C 436.814 353.175 388.978 359.155 339.745 359.155 C 336.838 359.155 333.936 359.134 331.039 359.093 C 255.626 400.995 170.152 426.982 79.156 432.517 C 72.684 426.457 66.535 420.057 60.737 413.345 C 129.17 411.21 194.588 397.117 254.973 373.086 C 231.215 375.972 207.024 377.457 182.487 377.457 C 127.428 377.457 74.116 369.978 23.51 355.982 C 19.747 347.952 16.397 339.689 13.49 331.221 C 66.924 347.627 123.674 356.457 182.487 356.457 C 205.461 356.457 228.119 355.11 250.389 352.49 C 158.328 338.625 73.176 303.666 0.014 252.694 C 0.005 251.797 0 250.899 0 250 Z" style="fill: rgb(238, 238, 238);"/>
</svg>