<?xml version="1.0" encoding="utf-8"?>
<svg viewBox="0 0 500 500" xmlns="http://www.w3.org/2000/svg">
  <circle style="fill: rgb(0, 112, 235);" cx="250" cy="250" r="250"/>
  <path d="M 432.026 329.304 C 377.555 400.395 307.218 458.688 226.307 498.892 C 222.596 498.543 218.908 498.113 215.245 497.604 C 292.511 460.751 360.375 407.362 414.257 342.015 C 326.142 406.036 219.565 446.188 104.018 452.974 C 101.485 451.149 98.987 449.277 96.525 447.361 C 212.733 441.95 320.035 402.46 408.665 338.655 C 344.371 362.796 274.728 376 202 376 C 138.322 376 77.008 365.878 19.58 347.154 C 18.561 344.742 17.58 342.309 16.635 339.859 C 74.858 359.407 137.192 370 202 370 C 281.753 370 357.76 353.958 426.969 324.926 C 427.675 324.374 428.38 323.821 429.083 323.267 C 455.729 288.118 478.473 249.848 496.671 209.103 C 497.272 212.754 497.794 216.431 498.234 220.133 C 483.846 251.001 466.856 280.413 447.546 308.086 C 466.039 292.236 483.526 275.246 499.898 257.224 C 499.809 260.352 499.663 263.465 499.46 266.563 C 483.285 283.938 466.07 300.332 447.915 315.647 C 464.671 307.825 480.992 299.228 496.833 289.902 C 496.417 292.497 495.961 295.078 495.465 297.645 C 475.061 309.42 453.882 320.004 432.026 329.304 Z" style="fill: rgb(238, 238, 238);"/>
</svg>