<?xml version="1.0" encoding="utf-8"?>
<svg viewBox="0 0 500 500" xmlns="http://www.w3.org/2000/svg">
  <circle style="fill: rgb(0, 112, 235);" cx="250" cy="250" r="250"/>
  <path d="M 362.201 375.879 C 362.097 375.906 361.992 375.934 361.888 375.961 C 289.591 407.715 209.683 425.339 125.659 425.339 C 106.615 425.339 87.783 424.434 69.204 422.664 C 67.121 420.484 65.078 418.267 63.075 416.013 C 83.635 418.212 104.515 419.339 125.659 419.339 C 195.495 419.339 262.459 407.039 324.501 384.487 C 288.086 391.542 250.472 395.238 211.995 395.238 C 147.922 395.238 86.243 384.99 28.506 366.043 C 26.984 363.143 25.516 360.209 24.106 357.243 C 83.05 377.337 146.249 388.238 211.995 388.238 C 249.306 388.238 285.797 384.727 321.156 378.017 C 317.65 378.079 314.137 378.11 310.617 378.11 C 198.034 378.11 92.84 346.469 3.445 291.595 C 3.012 289.011 2.619 286.414 2.266 283.805 C 91.671 339.763 197.367 372.11 310.617 372.11 C 325.733 372.11 340.714 371.534 355.54 370.402 C 358.869 369.558 362.186 368.685 365.492 367.783 C 413.316 346.126 457.691 318.191 497.565 285.03 C 497.145 288.025 496.672 291.002 496.147 293.962 C 466.909 317.714 435.345 338.714 401.85 356.568 C 432.785 345.898 462.54 332.693 490.865 317.201 C 489.992 320.336 489.06 323.446 488.069 326.53 C 458.738 342.156 427.927 355.369 395.901 365.906 C 424.855 361.654 453.116 355.271 480.519 346.92 C 479.498 349.345 478.44 351.751 477.345 354.137 C 440.351 365.056 401.839 372.434 362.201 375.879 Z" style="fill: rgb(238, 238, 238);"/>
</svg>