<?xml version="1.0" encoding="utf-8"?>
<svg viewBox="0 0 500 500" xmlns="http://www.w3.org/2000/svg" xmlns:bx="https://boxy-svg.com">
  <path style="fill: none; stroke: rgb(28, 164, 252); stroke-width: 5px;" d="M 59.458 128.011 C 51.057 128.011 46.913 133.352 46.913 140.557 C 46.913 212.974 46.951 266.332 46.951 337.477 C 46.951 346.176 51.852 350.204 59.954 350.204 L 443.667 350.204 C 452.43 350.204 456.96 345.181 456.96 337.052 L 456.96 141.015 C 456.96 132.911 452.032 128.468 444.247 128.468 L 59.458 128.011 Z"/>
  <path style="fill: rgb(216, 216, 216); stroke: rgb(0, 0, 0);" d="M 448.096 308.221"/>
  <path style="stroke-width: 16.1907px; stroke: rgb(28, 164, 252); fill: none;" transform="matrix(0.370584, 0, 0, 0.370584, -66.304283, 76.702133)" d="M 698.804 740.117 A 143.484 143.484 0 1 1 411.837 739.486 L 555.32 740.117 Z" bx:shape="pie 555.32 740.117 0 143.484 90 270.252 1@fae8397a"/>
  <path style="stroke-width: 16.1907px; stroke: rgb(28, 164, 252); fill: none;" transform="matrix(0.370584, 0, 0, 0.370584, 163.261337, 77.049049)" d="M 698.804 740.117 A 143.484 143.484 0 1 1 411.837 739.486 L 555.32 740.117 Z" bx:shape="pie 555.32 740.117 0 143.484 90 270.252 1@fae8397a"/>
</svg>