<?xml version="1.0" encoding="utf-8"?>
<svg viewBox="0 0 500 500" xmlns="http://www.w3.org/2000/svg" xmlns:bx="https://boxy-svg.com">
  <path d="M 151.321 216.49 L 271.97 425.46 L 30.672 425.46 L 151.321 216.49 Z" style="stroke: rgb(170, 170, 170) ; stroke-width: 18px; fill: none;" bx:shape="triangle 30.672 216.49 241.298 208.97 0.5 0 1@75aaf62d"/>
  <path d="M 348.25 70.016 L 468.899 278.986 L 227.601 278.986 L 348.25 70.016 Z" style="stroke: rgb(170, 170, 170) ; stroke-width: 18px; fill: none;" bx:shape="triangle 227.601 70.016 241.298 208.97 0.5 0 1@361abe93"/>
  <line style="fill: none; stroke: rgb(170, 170, 170) ; stroke-width: 18px;" x1="120.91" y1="389.524" x2="120.91" y2="460.323"/>
  <line style="fill: none; stroke: rgb(170, 170, 170) ; stroke-width: 18px;" x1="180.554" y1="389.524" x2="180.554" y2="460.323"/>
  <line style="fill: none; stroke: rgb(170, 170, 170) ; stroke-width: 18px;" x1="151.554" y1="389.524" x2="151.554" y2="460.323"/>
  <line style="fill: none; stroke: rgb(170, 170, 170) ; stroke-width: 18px;" x1="216.364" y1="292.594" x2="216.364" y2="363.393" transform="matrix(0.5, 0.866025, -0.866025, 0.5, 392.232647, -23.379997)"/>
  <line style="fill: none; stroke: rgb(170, 170, 170) ; stroke-width: 18px;" x1="95.253" y1="279.677" x2="95.253" y2="350.476" transform="matrix(0.5, -0.866025, 0.866025, 0.5, -225.237749, 240.02972)"/>
  <line style="fill: none; stroke: rgb(170, 170, 170) ; stroke-width: 18px;" x1="79.253" y1="305.594" x2="79.253" y2="376.393" transform="matrix(0.5, -0.866025, 0.866025, 0.5, -255.682518, 239.131807)"/>
  <line style="fill: none; stroke: rgb(170, 170, 170) ; stroke-width: 18px;" x1="318.335" y1="243.495" x2="318.335" y2="314.294"/>
  <line style="fill: none; stroke: rgb(170, 170, 170) ; stroke-width: 18px;" x1="377.979" y1="243.495" x2="377.979" y2="314.294"/>
  <line style="fill: none; stroke: rgb(170, 170, 170) ; stroke-width: 18px;" x1="348.979" y1="243.495" x2="348.979" y2="314.294"/>
  <line style="fill: none; stroke: rgb(170, 170, 170) ; stroke-width: 18px;" x1="413.789" y1="146.565" x2="413.789" y2="217.364" transform="matrix(0.5, 0.866025, -0.866025, 0.5, 364.48031, -267.369529)"/>
  <line style="fill: none; stroke: rgb(170, 170, 170) ; stroke-width: 18px;" x1="292.678" y1="133.648" x2="292.678" y2="204.447" transform="matrix(0.5, -0.866025, 0.866025, 0.5, -0.060452, 337.990295)"/>
  <line style="fill: none; stroke: rgb(170, 170, 170) ; stroke-width: 18px;" x1="276.678" y1="159.565" x2="276.678" y2="230.364" transform="matrix(0.5, -0.866025, 0.866025, 0.5, -30.505228, 337.092387)"/>
</svg>