<?xml version="1.0" encoding="utf-8"?>
<svg viewBox="0 0 500 500" xmlns="http://www.w3.org/2000/svg" xmlns:bx="https://boxy-svg.com">
  <path d="M 252.205 47.505 L 463.444 413.25 L 40.966 413.25 L 252.205 47.505 Z" style="fill: none; stroke: rgb(31, 31, 31) ; stroke-width: 18px;" transform="matrix(1, 0, -0.289523, 1, 120.699554, 1)" bx:shape="triangle 40.966 47.505 422.478 365.745 0.5 0 1@0618b912"/>
  <line style="stroke: rgb(31, 31, 31) ; stroke-width: 18px;" x1="414.202" y1="284.81" x2="414.202" y2="188.81" transform="matrix(0.297838, 0.954616, -0.954616, 0.297838, 516.899547, -229.125064)"/>
  <line style="stroke: rgb(31, 31, 31) ; stroke-width: 18px;" x1="423.561" y1="313.402" x2="423.561" y2="217.402" transform="matrix(0.297838, 0.954616, -0.954616, 0.297838, 550.76548, -217.983113)"/>
  <line style="stroke: rgb(31, 31, 31) ; stroke-width: 18px;" x1="195.015" y1="289.445" x2="195.015" y2="193.409" transform="matrix(0.673279, -0.739388, 0.739388, 0.673279, -114.792852, 223.071017)"/>
  <path style="fill: none; stroke: rgb(31, 31, 31) ; stroke-width: 38.124px;" transform="matrix(0.472144, 0, 0, 0.472144, -55.712936, -35.882908)" d="M 349.426 793.477 A 208.974 208.974 0 0 1 420.603 950.912 L 211.629 950.582 Z" bx:shape="pie 211.629 950.582 0 208.974 41.254 90.09 1@49448b72"/>
  <path style="fill: none; stroke: rgb(31, 31, 31) ; stroke-width: 38.124px;" transform="matrix(0.472144, 0, 0, 0.472144, -55.712936, -35.882908)" d="M 395.655 740.77 A 279.082 279.082 0 0 1 490.71 951.02 L 211.629 950.582 Z" bx:shape="pie 211.629 950.582 0 279.082 41.254 90.09 1@b079057e"/>
  <path style="fill: none; stroke: rgb(31, 31, 31) ; stroke-width: 38.124px;" transform="matrix(0.472144, 0, 0, 0.472144, -55.712936, -35.882908)" d="M 915.431 951.588 A 184.432 184.432 0 0 1 1048.634 773.911 L 1099.863 951.086 Z" bx:shape="pie 1099.863 951.086 0 184.432 269.844 343.873 1@ee057fc4"/>
</svg>